<?xml version="1.0" encoding="UTF-8"?>
<!DOCTYPE svg PUBLIC "-//W3C//DTD SVG 1.1//EN" "http://www.w3.org/Graphics/SVG/1.1/DTD/svg11.dtd">
<svg xmlns="http://www.w3.org/2000/svg" version="1.1" width="500px" height="500px" style="shape-rendering:geometricPrecision; text-rendering:geometricPrecision; image-rendering:optimizeQuality; fill-rule:evenodd; clip-rule:evenodd" xmlns:xlink="http://www.w3.org/1999/xlink">
<g><path style="opacity:0.991" fill="#000000" d="M 393.5,453.5 C 391.5,454.833 389.833,456.5 388.5,458.5C 372.949,471.134 355.616,473.967 336.5,467C 320.573,459.321 310.739,446.821 307,429.5C 306.667,421.5 306.333,413.5 306,405.5C 285.9,406.512 265.734,406.512 245.5,405.5C 227.5,405.5 209.5,405.5 191.5,405.5C 191.5,413.5 191.5,421.5 191.5,429.5C 187.214,451.287 174.214,464.787 152.5,470C 122.058,472.872 102.558,459.706 94,430.5C 93.5003,422.507 93.3336,414.507 93.5,406.5C 87.8465,405.945 82.1798,405.445 76.5,405C 71.6667,402.833 68.1667,399.333 66,394.5C 65.3333,290.167 65.3333,185.833 66,81.5C 72.1667,52.6667 89.6667,35.1667 118.5,29C 205.833,28.3333 293.167,28.3333 380.5,29C 409,35.5 426.5,53 433,81.5C 433.667,185.833 433.667,290.167 433,394.5C 427.301,404.937 418.634,408.603 407,405.5C 407.976,420.73 404.976,435.063 398,448.5C 396.951,450.618 395.451,452.284 393.5,453.5 Z M 99.5,136.5 C 199.5,136.5 299.5,136.5 399.5,136.5C 399.5,177.5 399.5,218.5 399.5,259.5C 299.5,259.5 199.5,259.5 99.5,259.5C 99.5,218.5 99.5,177.5 99.5,136.5 Z M 150.5,357.5 C 148.597,357.796 146.93,358.463 145.5,359.5C 128.085,362.134 116.751,355.134 111.5,338.5C 111.413,333.463 111.746,328.463 112.5,323.5C 122.286,305.741 136.286,301.575 154.5,311C 165.921,320.935 168.421,332.768 162,346.5C 158.93,351.073 155.096,354.739 150.5,357.5 Z M 387.5,326.5 C 387.676,331.88 387.342,337.213 386.5,342.5C 380.995,354.93 371.328,360.764 357.5,360C 338.465,355.422 330.965,343.589 335,324.5C 342.392,308.556 354.558,303.056 371.5,308C 379.529,311.925 384.862,318.091 387.5,326.5 Z"/></g>
<g><path style="opacity:0.11" fill="#271b23" d="M 112.5,323.5 C 111.746,328.463 111.413,333.463 111.5,338.5C 110.838,336.696 110.505,334.696 110.5,332.5C 110.343,329.186 111.009,326.186 112.5,323.5 Z"/></g>
<g><path style="opacity:0.094" fill="#221a22" d="M 387.5,326.5 C 388.648,330.981 388.815,335.648 388,340.5C 387.722,341.416 387.222,342.082 386.5,342.5C 387.342,337.213 387.676,331.88 387.5,326.5 Z"/></g>
<g><path style="opacity:0.635" fill="#1f161e" d="M 150.5,357.5 C 149.365,359.213 147.698,359.88 145.5,359.5C 146.93,358.463 148.597,357.796 150.5,357.5 Z"/></g>
<g><path style="opacity:0.02" fill="#1b1217" d="M 245.5,405.5 C 228.008,406.497 210.341,406.83 192.5,406.5C 192.825,414.352 192.492,422.018 191.5,429.5C 191.5,421.5 191.5,413.5 191.5,405.5C 209.5,405.5 227.5,405.5 245.5,405.5 Z"/></g>
<g><path style="opacity:0.004" fill="#1f151d" d="M 393.5,453.5 C 392.833,456.167 391.167,457.833 388.5,458.5C 389.833,456.5 391.5,454.833 393.5,453.5 Z"/></g>
</svg>
